# Made in Blockbench 4.5.2
mtllib monitor_screen.mtl

o base
v 1 0.0625 1
v 1 0.0625 0
v 1 0 1
v 1 0 0
v 0 0.0625 0
v 0 0.0625 1
v 0 0 0
v 0 0 1
vt 0.5 0.953125
vt 0.75 0.953125
vt 0.75 0.9375
vt 0.5 0.9375
vt 0.5 0.9375
vt 0.75 0.9375
vt 0.75 0.921875
vt 0.5 0.921875
vt 0.5 0.921875
vt 0.75 0.921875
vt 0.75 0.90625
vt 0.5 0.90625
vt 0.5 0.90625
vt 0.75 0.90625
vt 0.75 0.890625
vt 0.5 0.890625
vt 0.25 0.75
vt 0 0.75
vt 0 1
vt 0.25 1
vt 0.25 0.75
vt 0 0.75
vt 0 0.5
vt 0.25 0.5
vn 0 0 -1
vn 1 0 0
vn 0 0 1
vn -1 0 0
vn 0 1 0
vn 0 -1 0
usemtl m_74a0b065-cb10-f763-76c7-68f17b1d40e8
f 4/4/1 7/3/1 5/2/1 2/1/1
f 3/8/2 4/7/2 2/6/2 1/5/2
f 8/12/3 3/11/3 1/10/3 6/9/3
f 7/16/4 8/15/4 6/14/4 5/13/4
f 6/20/5 1/19/5 2/18/5 5/17/5
f 7/24/6 4/23/6 3/22/6 8/21/6
o cube
v 0.75 0.1875 0.75
v 0.75 0.1875 0.5625
v 0.75 0.0625 0.75
v 0.75 0.0625 0.5625
v 0.25 0.1875 0.5625
v 0.25 0.1875 0.75
v 0.25 0.0625 0.5625
v 0.25 0.0625 0.75
vt 0.5 0.890625
vt 0.625 0.890625
vt 0.625 0.859375
vt 0.5 0.859375
vt 0.5 0.609375
vt 0.546875 0.609375
vt 0.546875 0.578125
vt 0.5 0.578125
vt 0.125 0.5
vt 0.25 0.5
vt 0.25 0.46875
vt 0.125 0.46875
vt 0.40625 0.5
vt 0.453125 0.5
vt 0.453125 0.46875
vt 0.40625 0.46875
vt 0.125 0.453125
vt 0 0.453125
vt 0 0.5
vt 0.125 0.5
vt 0.625 1
vt 0.5 1
vt 0.5 0.953125
vt 0.625 0.953125
vn 0 0 -1
vn 1 0 0
vn 0 0 1
vn -1 0 0
vn 0 1 0
vn 0 -1 0
usemtl m_74a0b065-cb10-f763-76c7-68f17b1d40e8
f 12/28/7 15/27/7 13/26/7 10/25/7
f 11/32/8 12/31/8 10/30/8 9/29/8
f 16/36/9 11/35/9 9/34/9 14/33/9
f 15/40/10 16/39/10 14/38/10 13/37/10
f 14/44/11 9/43/11 10/42/11 13/41/11
f 15/48/12 12/47/12 11/46/12 16/45/12
o cube
v 0.4375 0.4375 0.75
v 0.4375 0.4375 0.625
v 0.4375 0.1875 0.75
v 0.4375 0.1875 0.625
v 0.3125 0.4375 0.625
v 0.3125 0.4375 0.75
v 0.3125 0.1875 0.625
v 0.3125 0.1875 0.75
vt 0.5 0.796875
vt 0.53125 0.796875
vt 0.53125 0.734375
vt 0.5 0.734375
vt 0.25 0.5
vt 0.28125 0.5
vt 0.28125 0.4375
vt 0.25 0.4375
vt 0.5 0.734375
vt 0.53125 0.734375
vt 0.53125 0.671875
vt 0.5 0.671875
vt 0.28125 0.5
vt 0.3125 0.5
vt 0.3125 0.4375
vt 0.28125 0.4375
vt 0.53125 0.546875
vt 0.5 0.546875
vt 0.5 0.578125
vt 0.53125 0.578125
vt 0.484375 0.5
vt 0.453125 0.5
vt 0.453125 0.46875
vt 0.484375 0.46875
vn 0 0 -1
vn 1 0 0
vn 0 0 1
vn -1 0 0
vn 0 1 0
vn 0 -1 0
usemtl m_74a0b065-cb10-f763-76c7-68f17b1d40e8
f 20/52/13 23/51/13 21/50/13 18/49/13
f 19/56/14 20/55/14 18/54/14 17/53/14
f 24/60/15 19/59/15 17/58/15 22/57/15
f 23/64/16 24/63/16 22/62/16 21/61/16
f 22/68/17 17/67/17 18/66/17 21/65/17
f 23/72/18 20/71/18 19/70/18 24/69/18
o cube
v 0.6875 0.4375 0.75
v 0.6875 0.4375 0.625
v 0.6875 0.1875 0.75
v 0.6875 0.1875 0.625
v 0.5625 0.4375 0.625
v 0.5625 0.4375 0.75
v 0.5625 0.1875 0.625
v 0.5625 0.1875 0.75
vt 0.3125 0.5
vt 0.34375 0.5
vt 0.34375 0.4375
vt 0.3125 0.4375
vt 0.5 0.671875
vt 0.53125 0.671875
vt 0.53125 0.609375
vt 0.5 0.609375
vt 0.34375 0.5
vt 0.375 0.5
vt 0.375 0.4375
vt 0.34375 0.4375
vt 0.375 0.5
vt 0.40625 0.5
vt 0.40625 0.4375
vt 0.375 0.4375
vt 0.53125 0.515625
vt 0.5 0.515625
vt 0.5 0.546875
vt 0.53125 0.546875
vt 0.515625 0.5
vt 0.484375 0.5
vt 0.484375 0.46875
vt 0.515625 0.46875
vn 0 0 -1
vn 1 0 0
vn 0 0 1
vn -1 0 0
vn 0 1 0
vn 0 -1 0
usemtl m_74a0b065-cb10-f763-76c7-68f17b1d40e8
f 28/76/19 31/75/19 29/74/19 26/73/19
f 27/80/20 28/79/20 26/78/20 25/77/20
f 32/84/21 27/83/21 25/82/21 30/81/21
f 31/88/22 32/87/22 30/86/22 29/85/22
f 30/92/23 25/91/23 26/90/23 29/89/23
f 31/96/24 28/95/24 27/94/24 32/93/24
o screen
v 1 1.0526133121147234 0.9046402485960483
v 1 0.14630552507807337 0.48202198685534914
v 1 1.0394064914353265 0.9329623669409437
v 1 0.13309870439867655 0.5103441052002444
v 0 0.14630552507807337 0.48202198685534914
v 0 1.0526133121147234 0.9046402485960483
v 0 0.13309870439867655 0.5103441052002444
v 0 1.0394064914353265 0.9329623669409437
vt 0.5 0.859375
vt 0.75 0.859375
vt 0.75 0.8515625
vt 0.5 0.8515625
vt 0.5 0.84375
vt 0.75 0.84375
vt 0.75 0.8359375
vt 0.5 0.8359375
vt 0.5 0.828125
vt 0.75 0.828125
vt 0.75 0.8203125
vt 0.5 0.8203125
vt 0.5 0.8125
vt 0.75 0.8125
vt 0.75 0.8046875
vt 0.5 0.8046875
vt 0.5 0.75
vt 0.25 0.75
vt 0.25 1
vt 0.5 1
vt 0.5 0.75
vt 0.25 0.75
vt 0.25 0.5
vt 0.5 0.5
vn 0 -0.90630778703665 -0.4226182617406993
vn 1 0 0
vn 0 0.90630778703665 0.4226182617406993
vn -1 0 0
vn 0 0.4226182617406993 -0.90630778703665
vn 0 -0.4226182617406993 0.90630778703665
usemtl m_74a0b065-cb10-f763-76c7-68f17b1d40e8
f 36/100/25 39/99/25 37/98/25 34/97/25
f 35/104/26 36/103/26 34/102/26 33/101/26
f 40/108/27 35/107/27 33/106/27 38/105/27
f 39/112/28 40/111/28 38/110/28 37/109/28
f 38/116/29 33/115/29 34/114/29 37/113/29
f 39/120/30 36/119/30 35/118/30 40/117/30
o keyboard
v 0.9375 0.09375 0.375
v 0.9375 0.09375 0.0625
v 0.9375 0.0625 0.375
v 0.9375 0.0625 0.0625
v 0.0625 0.09375 0.0625
v 0.0625 0.09375 0.375
v 0.0625 0.0625 0.0625
v 0.0625 0.0625 0.375
vt 0 0.375
vt 0.875 0.375
vt 0.875 0.34375
vt 0 0.34375
vt 0 0.25
vt 0.3125 0.25
vt 0.3125 0.21875
vt 0 0.21875
vt 0 0.3125
vt 0.875 0.3125
vt 0.875 0.28125
vt 0 0.28125
vt 0.3125 0.25
vt 0.625 0.25
vt 0.625 0.21875
vt 0.3125 0.21875
vt 0.875 0.6875
vt 0 0.6875
vt 0 1
vt 0.875 1
vt 0.875 0.6875
vt 0 0.6875
vt 0 0.375
vt 0.875 0.375
vn 0 0 -1
vn 1 0 0
vn 0 0 1
vn -1 0 0
vn 0 1 0
vn 0 -1 0
usemtl m_915cfc25-05e2-3764-58bf-8937465b40ef
f 44/124/31 47/123/31 45/122/31 42/121/31
f 43/128/32 44/127/32 42/126/32 41/125/32
f 48/132/33 43/131/33 41/130/33 46/129/33
f 47/136/34 48/135/34 46/134/34 45/133/34
f 46/140/35 41/139/35 42/138/35 45/137/35
f 47/144/36 44/143/36 43/142/36 48/141/36